<svg width="59" height="69" viewBox="0 0 59 69" fill="none" xmlns="http://www.w3.org/2000/svg">
<path fill-rule="evenodd" clip-rule="evenodd" d="M42.6406 1.74245C42.6406 3.42907 42.2355 5.30863 41.4254 7.38112C40.5869 9.45489 39.2871 11.3626 37.5261 13.1041C36.017 14.5965 34.5073 15.5919 32.9969 16.0902C31.9633 16.3943 30.5098 16.6294 28.6363 16.7955C28.7203 12.6761 29.8108 9.12395 31.9077 6.13915C33.9763 3.1799 37.4705 1.1336 42.3905 0.000244141C42.419 0.0832941 42.4539 0.235344 42.4952 0.456394C42.5365 0.677444 42.5714 0.829494 42.5999 0.912544C42.5999 1.0237 42.607 1.1617 42.6212 1.32653C42.6354 1.49136 42.6425 1.62935 42.6425 1.74052L42.6406 1.74245ZM58.4065 50.3803C57.316 53.8353 55.597 57.291 53.2494 60.7473C49.6433 66.1649 46.0515 68.8737 42.4739 68.8737C41.1044 68.8737 39.1476 68.4316 36.6036 67.5474C34.1992 66.6632 32.0886 66.2211 30.2721 66.2211C28.5666 66.2211 26.5821 66.6773 24.3184 67.5896C22.0548 68.53 20.2098 69.0002 18.7834 69.0002C14.5352 69.0002 10.3284 65.4206 6.16294 58.2614C2.05431 51.0447 0 44.0913 0 37.401C0 31.0979 1.5795 25.9288 4.73849 21.8937C7.89748 17.9135 11.8666 15.9235 16.6458 15.9235C18.6587 15.9235 21.1323 16.3381 24.0665 17.1673C26.9735 17.9966 28.9025 18.4112 29.8535 18.4112C31.1119 18.4112 33.1106 17.941 35.8497 17.0006C38.7012 16.0602 41.1192 15.59 43.1038 15.59C46.4307 15.59 49.4075 16.4882 52.0342 18.2847C53.4878 19.2801 54.9413 20.6619 56.3948 22.4303C54.1867 24.2831 52.5937 25.9141 51.6156 27.3234C49.799 29.9224 48.8907 32.7832 48.8907 35.906C48.8907 39.3342 49.8552 42.4168 51.7842 45.1537C53.7132 47.8906 55.9213 49.6322 58.4084 50.3784L58.4065 50.3803Z" fill="#343434"/>
</svg>
