<svg width="149" height="146" viewBox="0 0 149 146" fill="none" xmlns="http://www.w3.org/2000/svg">
<g filter="url(#filter0_d_471_29771)">
<path fill-rule="evenodd" clip-rule="evenodd" d="M74.4996 137C36.6681 137 5.99959 106.331 5.99959 68.4999C5.99959 30.6684 36.6681 -0.0001 74.4996 -0.0001C112.331 -0.0001 143 30.6684 143 68.4999C143 106.331 112.331 137 74.4996 137Z" fill="#F3F3F3"/>
</g>
<path fill-rule="evenodd" clip-rule="evenodd" d="M84.5621 56.9695C84.5621 51.5037 80.1268 47.0745 74.6632 47.0745C69.1958 47.0745 64.7644 51.5037 64.7644 56.9695C64.7644 60.6809 66.8094 63.9088 69.8319 65.6039L70.0375 59.0376C70.0375 56.3511 72.2172 54.1717 74.9066 54.1717H75.1827C77.3009 54.1717 79.0178 55.888 79.0178 58.0062V65.8473C82.295 64.2373 84.5621 60.8697 84.5621 56.9695Z" fill="#FFC607" fill-opacity="0.54"/>
<path fill-rule="evenodd" clip-rule="evenodd" d="M79.0769 57.6127C79.0769 55.4948 77.3603 53.7787 75.2426 53.7787H74.9664C72.2776 53.7787 70.0984 55.9579 70.0984 58.6441L69.8928 65.2096L69.4369 79.6747C69.3333 80.1208 69.2743 90.1781 69.2743 90.1781C68.4241 89.3113 67.4775 88.3196 66.6274 87.3707C64.6421 85.1564 60.9944 83.6642 58.5699 83.388C57.2927 83.2416 56.3177 83.4164 55.6685 83.9049C55.4607 84.0633 55.2575 84.2405 55.0665 84.4314C53.8153 85.6638 52.8709 87.6542 53.7445 89.113C54.1221 89.7502 54.771 90.1731 55.4607 90.617C56.3744 91.2094 57.9135 91.8514 59.0706 93.3269C61.0081 95.8057 65.4946 101.347 68.2519 104.305C68.8256 104.661 70.0392 105.873 70.6129 106.179C72.3529 107.291 73.7743 108.337 74.2673 108.904C74.6525 109.345 76.9305 110.511 76.9305 110.511C78.7723 111.678 82.1246 112.768 85.9965 112.768C89.8609 112.768 93.372 113 95.9668 110.717H96.1056L96.1741 110.545C98.8139 108.127 100.455 104.777 100.455 101.073V96.1436V83.3642C100.455 82.4959 100.264 79.5869 97.8172 78.7134C96.6417 78.2956 95.5301 78.4538 94.5828 78.8624L94.3613 78.8719L94.2931 78.8764C93.8676 77.2783 92.8053 76.2466 91.2333 75.9726C89.335 75.6442 88.0195 76.2111 87.2288 76.7849C86.443 75.0946 84.8656 74.2137 82.7315 74.3931C81.1309 74.5282 79.9406 75.314 79.0769 76.3502V65.453V57.6127Z" fill="#28A19C"/>
<path fill-rule="evenodd" clip-rule="evenodd" d="M96.7931 73.5733L98.7615 75.7597C99.1402 76.1845 99.8261 76.1589 100.16 75.6983C103.954 70.4426 106.046 64.117 106.046 57.463C106.046 40.191 91.9675 26.1421 74.664 26.1421C73.4767 26.1421 72.2726 26.2083 71.0819 26.3408C56.6414 27.9464 45.0284 39.5799 43.4694 54.0038C42.6199 61.8523 44.7015 69.5098 49.1658 75.6983C49.4968 76.1611 50.183 76.1845 50.5668 75.762L52.5324 73.5779C52.8119 73.2687 52.8328 72.8104 52.5961 72.468C49.4452 67.8733 47.7914 62.3859 47.9568 56.6793C48.3568 42.8287 59.5278 31.474 73.3887 30.8293C88.7146 30.0763 101.381 42.3377 101.381 57.463C101.381 62.8751 99.7271 68.0791 96.7248 72.4635C96.4905 72.8082 96.5117 73.2642 96.7931 73.5733Z" fill="#28A19C"/>
<path fill-rule="evenodd" clip-rule="evenodd" d="M87.9885 63.7723L90.0754 66.0861C90.5017 66.5629 91.277 66.4542 91.5632 65.8855C92.8806 63.2906 93.5746 60.4357 93.5746 57.4609C93.5746 48.5882 87.2543 40.8318 78.5406 39.0137C75.9993 38.4775 73.3288 38.4775 70.7801 39.0137C62.0715 40.8318 55.7513 48.5882 55.7513 57.4609C55.7513 60.4384 56.4452 63.2906 57.7604 65.8855C58.052 66.4542 58.8219 66.5629 59.2505 66.0861L61.3352 63.7723C61.5697 63.5123 61.6241 63.1442 61.4916 62.8234C60.7903 61.1256 60.4209 59.3052 60.4209 57.4609C60.4209 51.5276 64.1847 46.1681 69.7841 44.1256C72.9121 42.9874 76.4132 42.9874 79.5384 44.1256C85.1385 46.1681 88.9003 51.5276 88.9003 57.4609C88.9003 59.3052 88.531 61.1256 87.8343 62.8234C87.7018 63.1465 87.7554 63.5146 87.9885 63.7723Z" fill="#FFBA00"/>
<defs>
<filter id="filter0_d_471_29771" x="0" y="-3" width="149" height="149" filterUnits="userSpaceOnUse" color-interpolation-filters="sRGB">
<feFlood flood-opacity="0" result="BackgroundImageFix"/>
<feColorMatrix in="SourceAlpha" type="matrix" values="0 0 0 0 0 0 0 0 0 0 0 0 0 0 0 0 0 0 127 0" result="hardAlpha"/>
<feOffset dy="3"/>
<feGaussianBlur stdDeviation="3"/>
<feColorMatrix type="matrix" values="0 0 0 0 0 0 0 0 0 0 0 0 0 0 0 0 0 0 0.16 0"/>
<feBlend mode="normal" in2="BackgroundImageFix" result="effect1_dropShadow_471_29771"/>
<feBlend mode="normal" in="SourceGraphic" in2="effect1_dropShadow_471_29771" result="shape"/>
</filter>
</defs>
</svg>
