<svg width="54" height="54" viewBox="0 0 54 54" fill="none" xmlns="http://www.w3.org/2000/svg">
<path fill-rule="evenodd" clip-rule="evenodd" d="M10.8914 26.5765C10.8821 34.3498 16.6168 40.997 24.4664 42.3112C32.316 43.6254 39.9926 39.2237 42.638 31.8916H27.2285V21.2613H53.9251V31.8916H53.9124C51.3874 44.0209 40.4016 53.1524 27.2285 53.1524C12.1911 53.1524 1.00005e-05 41.2535 1.00005e-05 26.5765C1.00005e-05 11.8994 12.1911 0.000504145 27.2285 0.000504145C36.2655 -0.00596597 44.7157 4.36853 49.7791 11.6744L40.8536 17.7727C36.8749 11.903 29.4239 9.2734 22.5191 11.3022C15.6143 13.3311 10.8889 19.5384 10.8914 26.5765L10.8914 26.5765Z" fill="#343434"/>
</svg>
