<svg width="99" height="39" viewBox="0 0 99 39" fill="none" xmlns="http://www.w3.org/2000/svg">
<path fill-rule="evenodd" clip-rule="evenodd" d="M80.3661 7.85962H98.858V5.16115H81.3025L80.3661 7.85962ZM60.4077 13.0095H75.2447L74.2918 10.3084H60.4077L60.4077 13.0095ZM71.3727 23.3201H82.4064L83.351 20.6216H70.4253L71.3727 23.3201ZM73.2181 28.47H80.5583L81.5249 25.7689H72.2432L73.2181 28.47ZM75.0662 33.6172H78.7074L79.6878 30.9188H74.0996L75.0662 33.6172ZM76.8868 38.7511L77.8342 36.0794H75.9339L76.8868 38.7511ZM83.1368 0.00585828L82.184 2.70165H98.858V0.00585828H83.1368ZM93.3631 10.303H79.4818L78.5344 13.0042H93.3631V10.303ZM85.1195 18.1648H93.3576V15.4637H77.6612L76.8868 17.6466L76.1124 15.4637H60.405V18.1648H68.6431V15.6838L69.5219 18.1648H84.249L85.1222 15.6838L85.1195 18.1648ZM85.1195 20.6163H93.3576V23.3147H85.1195V20.6163ZM85.1195 25.7635H93.3576V28.4647H85.1195V25.7635ZM85.1195 30.9134H98.858V33.6119H85.1222L85.1195 30.9134ZM85.1195 36.0767H98.858V38.7672H85.1222L85.1195 36.0767ZM70.6505 0.000488281H54.9238V2.69627H71.5979L70.6505 0.000488281ZM72.4711 5.15041H54.9238V7.84888H73.4185L72.4711 5.15041ZM60.4077 20.6109H68.6459V23.3094H60.4077V20.6109ZM60.4077 25.7581H68.6459V28.4593H60.4077V25.7581ZM54.9266 30.908H68.6514V33.6065H54.9266V30.908ZM54.9266 36.0714H68.6514V38.7618H54.9266V36.0714ZM21.9657 38.743L42.4375 38.7725C45.1863 38.7725 47.6605 37.7361 49.5086 36.0741H21.963V38.7457L21.9657 38.743ZM43.9396 25.7581V28.4593H52.9275C52.9275 27.5329 52.8011 26.62 52.5567 25.7581H43.9396ZM27.4578 25.7581H35.6905V28.4593H27.4523L27.4578 25.7581ZM43.9396 12.9988H52.5568C52.7984 12.1369 52.9275 11.2267 52.9275 10.2976H43.9396L43.9396 12.9988ZM27.4578 10.2976H35.696V12.9988H27.4578V10.2976ZM42.4375 0.00316828H21.963V2.70164H49.4977C47.5759 0.964738 45.0545 0.00102828 42.4375 0.00316828ZM51.5242 5.15309H21.9629V7.85156H52.6227C52.374 6.9109 52.0059 6.00436 51.527 5.15309H51.5242ZM27.4578 15.461V18.1621H49.2285C50.1485 17.4049 50.9174 16.4947 51.5325 15.461H27.4578ZM49.223 20.6163H27.4606V23.3147H51.527C50.9172 22.2982 50.1407 21.3865 49.2285 20.6163H49.223ZM21.9629 33.6119H51.5242C52.0185 32.7822 52.3975 31.8693 52.6254 30.9134H21.9684V33.6119H21.9629ZM0 0.000488281H19.2224V2.69896H0V0.000488281ZM0 5.1504H19.2224V7.84887H0V5.1504ZM5.47838 10.3003H13.7303V13.0015H5.47838V10.3003ZM5.47838 15.4583H13.7303V18.1594H5.47838V15.4583ZM5.47838 20.6136H13.7303V23.312H5.47838V20.6136ZM5.47838 25.7608H13.7303V28.462H5.47838V25.7608ZM0 30.9107H19.2224V33.6092H0V30.9107ZM0 36.0741H19.2224V38.7645H0V36.0741Z" fill="#343434"/>
</svg>
