<svg width="86" height="56" viewBox="0 0 86 56" fill="none" xmlns="http://www.w3.org/2000/svg">
<path fill-rule="evenodd" clip-rule="evenodd" d="M74.5219 16.4844C73.5465 16.4857 72.7547 15.7068 72.7534 14.7447C72.7521 13.7826 73.5418 13.0017 74.5172 13.0004H74.5219C75.4538 13.0588 76.1793 13.8214 76.1793 14.7424C76.1793 15.6634 75.4538 16.4259 74.5219 16.4844H74.5219ZM74.5219 13.2913C73.716 13.2945 73.0653 13.9416 73.0686 14.7365C73.0719 15.5315 73.7279 16.1733 74.5338 16.17C75.3343 16.1675 75.9841 15.5308 75.9919 14.7412C75.9867 13.9426 75.3316 13.2964 74.5219 13.2913L74.5219 13.2913ZM75.2998 15.7852H74.9739C74.943 15.7852 74.9097 15.7712 74.8978 15.743L74.4506 14.9923C74.4387 14.9758 74.4054 14.9571 74.384 14.9571H74.1842V15.7031C74.1842 15.7454 74.1533 15.7923 74.1009 15.7923H73.8084C73.7679 15.7923 73.7322 15.743 73.7322 15.7031V13.8262C73.7322 13.723 73.7751 13.6667 73.8678 13.6573C74.0462 13.6409 74.2294 13.6362 74.4101 13.6362C74.9525 13.6362 75.2879 13.7981 75.2879 14.2978V14.333C75.2879 14.6497 75.1237 14.8092 74.8811 14.889L75.3449 15.6609C75.3449 15.682 75.3616 15.7031 75.3616 15.7243C75.3687 15.7501 75.3473 15.7853 75.295 15.7853V15.7923V15.7853L75.2998 15.7852ZM74.8716 14.2978C74.8716 14.0866 74.7408 14.021 74.4577 14.021H74.1842V14.6192L74.4577 14.6263C74.7384 14.6263 74.8716 14.5371 74.8716 14.3306V14.2978ZM40.6694 49.647C23.7502 51.1885 6.11034 48.7626 3.64371 35.7227C2.44013 29.2943 5.41816 22.4741 9.34527 18.244V15.98C2.25697 22.1104 -1.58926 29.8785 0.625245 39.0519C3.45104 50.8248 18.591 57.4878 41.6898 55.2707C50.8356 54.3956 62.7977 51.4911 71.1134 46.9865V40.5956C63.5636 45.0322 51.0735 48.6969 40.6694 49.6447V49.647ZM85.2543 15.8275C81.2392 -3.50705 43.1812 -4.73173 18.6623 9.99263V11.6185C43.155 -0.797259 77.9043 -0.726869 81.0679 17.0733C82.124 22.9691 78.763 29.1019 72.757 32.6352V37.2477C79.9809 34.6365 87.4046 26.1739 85.2519 15.8228L85.2543 15.8275ZM69.7433 37.0764C66.4299 36.7597 65.3072 34.7819 65.3072 32.4921V13.0098H69.7433V37.0811V37.0741V37.0764ZM16.9212 37.4424C13.603 37.1328 12.4755 35.1503 12.4755 32.8487V20.1256H16.914V37.4542L16.9212 37.4401L16.9212 37.4424ZM16.9093 17.7513H12.4779V13.5986H16.9093V17.7513V17.7513ZM43.488 37.2407C39.9058 37.2407 38.3788 34.7819 38.3788 32.3443V15.4521H42.7745V20.1209H46.0855V23.626H42.7721V32.0721C42.7721 33.0716 43.2549 33.6206 44.3015 33.6206H46.0855V37.2336H43.488V37.2407ZM51.5801 30.0357C51.5801 32.2504 52.9835 33.8904 55.4834 33.8904C57.4244 33.8904 58.3901 33.3625 59.5176 32.2504L62.2363 34.8148C60.4999 36.5087 58.666 37.5339 55.4501 37.5339C51.24 37.5339 47.2082 35.2699 47.2082 28.6655C47.2082 23.0184 50.7238 19.8253 55.3455 19.8253C60.0361 19.8253 62.7501 23.5674 62.7501 28.4661V30.024H51.5801V30.0357L51.5801 30.0357ZM55.1576 23.4196C53.6519 23.4196 52.4888 24.1797 51.9988 25.2144C51.7248 25.7992 51.5812 26.4353 51.5778 27.0795H58.3497C58.2664 25.2144 57.4101 23.4196 55.1552 23.4196H55.1576ZM25.2273 23.6237V37.2688H20.8269V20.1186L29.9156 20.1256C33.769 20.1256 35.0867 22.8143 35.0867 25.2496V37.2688H30.6982V25.2754C30.6982 24.2525 30.1678 23.6237 28.8666 23.6237H25.2273Z" fill="#343434"/>
</svg>
