<svg width="26" height="25" viewBox="0 0 26 25" fill="none" xmlns="http://www.w3.org/2000/svg">
<path fill-rule="evenodd" clip-rule="evenodd" d="M10.9767 22.285C10.9767 22.9501 10.4375 23.4892 9.77243 23.4892C9.10735 23.4892 8.56819 22.9501 8.56819 22.285C8.56819 21.6199 9.10735 21.0807 9.77243 21.0807C10.4375 21.0807 10.9767 21.6199 10.9767 22.285Z" stroke="white" stroke-width="1.5" stroke-linecap="round" stroke-linejoin="round"/>
<path fill-rule="evenodd" clip-rule="evenodd" d="M22.5731 22.285C22.5731 22.9501 22.0339 23.4892 21.3688 23.4892C20.7037 23.4892 20.1646 22.9501 20.1646 22.285C20.1646 21.6199 20.7037 21.0807 21.3688 21.0807C22.0339 21.0807 22.5731 21.6199 22.5731 22.285Z" stroke="white" stroke-width="1.5" stroke-linecap="round" stroke-linejoin="round"/>
<path d="M1.02245 1.52196H5.37881L8.29758 14.6814C8.50313 15.6153 9.42085 16.2819 10.4758 16.2637H21.0617C22.1166 16.2819 23.0344 15.6153 23.2399 14.6814L24.9825 6.43587H6.4679" stroke="white" stroke-width="1.5" stroke-linecap="round" stroke-linejoin="round"/>
</svg>
