<svg width="18" height="18" viewBox="0 0 18 18" fill="none" xmlns="http://www.w3.org/2000/svg">
<path fill-rule="evenodd" clip-rule="evenodd" d="M11.661 3.57204C13.8922 5.80416 13.8922 9.42361 11.6612 11.656C9.43029 13.8884 5.81318 13.8884 3.58222 11.656C1.35111 9.42376 1.35111 5.8043 3.58207 3.57189C5.81303 1.33948 9.43014 1.33948 11.6611 3.57189L11.661 3.57204ZM13.6376 12.2896C16.0975 9.11036 15.6668 4.5659 12.6535 1.906C9.64025 -0.753901 5.0805 -0.614631 2.23495 2.22423C-0.61253 5.06937 -0.75715 9.64004 1.90477 12.6597C4.5667 15.6794 9.11674 16.1062 12.2932 13.6343L12.3344 13.6774L16.3733 17.7202C16.7455 18.0926 17.3488 18.0926 17.7209 17.7202C18.093 17.3479 18.093 16.7442 17.7209 16.3718L13.6807 12.3303C13.6667 12.3165 13.6523 12.3032 13.6376 12.2903V12.2896Z" fill="white"/>
</svg>
