<svg width="26" height="24" viewBox="0 0 26 24" fill="none" xmlns="http://www.w3.org/2000/svg">
<path fill-rule="evenodd" clip-rule="evenodd" d="M10.7986 21.9255C10.7986 22.5188 10.3176 22.9998 9.72424 22.9998C9.13088 22.9998 8.64986 22.5188 8.64986 21.9255C8.64986 21.3321 9.13088 20.8511 9.72424 20.8511C10.3176 20.8511 10.7986 21.3321 10.7986 21.9255Z" stroke="#28A19C" stroke-width="1.25" stroke-linecap="round" stroke-linejoin="round"/>
<path fill-rule="evenodd" clip-rule="evenodd" d="M22.8509 21.9255C22.8509 22.5188 22.3722 22.9998 21.7816 22.9998C21.191 22.9998 20.7122 22.5188 20.7122 21.9255C20.7122 21.3321 21.191 20.8511 21.7816 20.8511C22.3722 20.8511 22.8509 21.3321 22.8509 21.9255Z" stroke="#28A19C" stroke-width="1.25" stroke-linecap="round" stroke-linejoin="round"/>
<path d="M1 1H5.36364L8.28728 14.8936C8.49317 15.8795 9.41242 16.5834 10.4691 16.5641H21.0727C22.1294 16.5834 23.0487 15.8795 23.2546 14.8936L25 6.18803H6.45456" stroke="#28A19C" stroke-width="1.25" stroke-linecap="round" stroke-linejoin="round"/>
</svg>
