<svg width="24" height="25" viewBox="0 0 24 25" fill="none" xmlns="http://www.w3.org/2000/svg">
<path fill-rule="evenodd" clip-rule="evenodd" d="M0 11.5788C0 5.184 5.18396 0 11.5787 0C17.9734 0 23.1574 5.184 23.1574 11.5788C23.1574 17.9736 17.9734 23.1576 11.5787 23.1576C5.18396 23.1576 0 17.9736 0 11.5788Z" fill="#28A19C"/>
<path fill-rule="evenodd" clip-rule="evenodd" d="M10.3021 25.0001V16.2953H8V13.1611H10.3021V10.4841C10.3021 8.38054 11.6616 6.4486 14.7949 6.4486C16.0632 6.4486 17.0012 6.57022 17.0012 6.57022L16.9275 9.49722C16.9275 9.49722 15.971 9.48795 14.9269 9.48795C13.7972 9.48795 13.6158 10.0084 13.6158 10.8726V13.1611H17.0171L16.8692 16.2953H13.6158V25.0001H10.3021" fill="white"/>
</svg>
