<svg width="24" height="24" viewBox="0 0 24 24" fill="none" xmlns="http://www.w3.org/2000/svg">
<path fill-rule="evenodd" clip-rule="evenodd" d="M4.65613 8.94308H8.14798V19.5222H4.65613V8.94308ZM16.7212 8.69398C19.0191 8.69398 20.7412 10.206 20.7412 13.4559V19.5222H17.2494V13.8629C17.2494 12.4408 16.7443 11.4703 15.4803 11.4703C14.5158 11.4703 13.9407 12.1244 13.6881 12.7559C13.5956 12.9817 13.5731 13.2974 13.5731 13.6138V19.5222H10.0806C10.0806 19.5222 10.1262 9.93494 10.0806 8.94244H13.5731V10.4409C14.037 9.72014 14.8673 8.69464 16.7205 8.69464L16.7212 8.69398ZM6.42597 3.842C7.62055 3.842 8.35696 4.63199 8.37945 5.66979C8.37945 6.68494 7.62055 7.49693 6.40283 7.49693H6.38034C5.20825 7.49693 4.45063 6.68494 4.45063 5.66979C4.45063 4.632 5.23138 3.842 6.42596 3.842H6.42597ZM5.28484 0.000244141C2.79286 0.000244141 0.753906 2.05383 0.753906 4.56291V18.7206C0.753906 21.2297 2.7935 23.282 5.28548 23.282H19.3467C21.8387 23.282 23.877 21.2291 23.877 18.7206V4.56291C23.877 2.05383 21.838 0.000244141 19.3467 0.000244141H5.28484Z" fill="#28A19C"/>
</svg>
