<svg width="24" height="20" viewBox="0 0 24 20" fill="none" xmlns="http://www.w3.org/2000/svg">
<path fill-rule="evenodd" clip-rule="evenodd" d="M23.3288 2.28168C22.4537 2.67034 21.5265 2.92691 20.5773 3.04313C21.5765 2.43728 22.3246 1.48727 22.6835 0.368545C21.7576 0.913944 20.7311 1.31005 19.6378 1.53135C18.1555 -0.0670804 15.7929 -0.461298 13.879 0.570453C11.9651 1.6022 10.9779 3.80228 11.4726 5.93312C7.4906 5.74324 3.95989 3.8144 1.5972 0.898875C1.16746 1.63536 0.943335 2.47539 0.948584 3.3299C0.948584 5.00929 1.79588 6.48506 3.07948 7.35258C2.31873 7.32816 1.57478 7.12074 0.909629 6.7476V6.80718C0.909019 9.10808 2.51636 11.0907 4.75265 11.5474C4.0498 11.7375 3.31364 11.7661 2.59838 11.6313C3.2298 13.6 5.03068 14.9477 7.08222 14.9868C5.38709 16.3281 3.29416 17.056 1.13947 17.0538C0.759647 17.0538 0.380473 17.0308 9.99878e-06 16.9876C2.19672 18.4062 4.75096 19.1592 7.35946 19.1574C16.1772 19.1574 20.9928 11.7956 20.9928 5.42177C20.9928 5.21618 20.9928 5.00928 20.9785 4.80304C21.9193 4.12033 22.7307 3.27274 23.3743 2.30065L23.3282 2.28102L23.3288 2.28168Z" fill="#28A19C"/>
</svg>
