<svg width="24" height="24" viewBox="0 0 24 24" fill="none" xmlns="http://www.w3.org/2000/svg">
<path fill-rule="evenodd" clip-rule="evenodd" d="M16.5 13.4994H15L14.1561 14.2494C13.453 14.0618 12.5897 13.4563 11.5661 12.4328C10.5426 11.4092 9.9373 10.5462 9.75019 9.84352L10.5002 8.99953V7.49958C10.5002 7.23381 10.4064 6.96826 10.2188 6.70294C10.0313 6.43761 9.82418 6.24628 9.59752 6.12896C9.37086 6.01163 9.21086 5.99985 9.11753 6.09363L8.01623 7.19493C7.40691 7.80424 7.31714 8.75333 7.7469 10.0422C8.17667 11.331 8.99687 12.581 10.2075 13.7921C11.4181 15.0032 12.6681 15.8234 13.9574 16.2527C15.2467 16.682 16.1958 16.5924 16.8046 15.984L17.9059 14.8827C17.9997 14.7889 17.9879 14.6287 17.8706 14.4021C17.7533 14.1754 17.562 13.9683 17.2966 13.7807C17.0313 13.5932 16.7658 13.4994 16.5 13.4994H16.5ZM12.7497 22.4994C10.8124 22.4994 8.9922 22.0307 7.28913 21.0934L0 23.9993L2.90592 16.7102C1.96861 15.0071 1.49996 13.187 1.49996 11.2497C1.49996 9.71861 1.79684 8.26154 2.3906 6.87847C2.98436 5.4954 3.78523 4.3001 4.7932 3.29257C5.80117 2.28504 6.99625 1.4844 8.37843 0.89064C9.76061 0.29688 11.2177 0 12.7496 0C14.2816 0 15.7387 0.29688 17.1208 0.89064C18.503 1.4844 19.6983 2.28527 20.7068 3.29324C21.7152 4.30121 22.516 5.49651 23.1094 6.87914C23.7027 8.26177 23.9995 9.71884 24 11.2503C24.0004 12.7819 23.7036 14.2389 23.1094 15.6216C22.5152 17.0042 21.7143 18.1995 20.7068 19.2075C19.6992 20.2154 18.5039 21.0163 17.1208 21.6101C15.7378 22.2038 14.2807 22.5003 12.7496 22.4994H12.7497Z" fill="#28A19C"/>
</svg>
