<svg width="24" height="17" viewBox="0 0 24 17" fill="none" xmlns="http://www.w3.org/2000/svg">
<path fill-rule="evenodd" clip-rule="evenodd" d="M23.5186 3.58186C23.5186 3.58186 23.2911 1.95417 22.5891 1.23827C21.7008 0.29895 20.7035 0.29423 20.2469 0.23916C16.9766 0 12.0694 0 12.0694 0H12.06C12.06 0 7.15349 0 3.88249 0.23837C3.42511 0.29423 2.42932 0.29737 1.54027 1.23748C0.839013 1.95338 0.610713 3.58107 0.610713 3.58107C0.610713 3.58107 0.376953 5.49118 0.376953 7.4013V9.19183C0.376953 11.1011 0.610703 13.012 0.610703 13.012C0.610703 13.012 0.838223 14.6382 1.54026 15.3548C2.42853 16.2957 3.5973 16.2651 4.11779 16.3634C5.98782 16.5435 12.0654 16.5994 12.0654 16.5994C12.0654 16.5994 16.9782 16.5923 20.2484 16.354C20.7058 16.2981 21.7024 16.295 22.5906 15.3548C23.2919 14.6389 23.5202 13.012 23.5202 13.012C23.5202 13.012 23.7539 11.1012 23.7539 9.19182V7.40129C23.7539 5.49039 23.5202 3.58106 23.5202 3.58106L23.5186 3.58186ZM9.6503 11.3615V4.72963L15.9648 8.05738L9.6503 11.3615Z" fill="#28A19C"/>
</svg>
